<svg width="400" height="400" viewBox="0 0 400 400" fill="none" xmlns="http://www.w3.org/2000/svg">
<path d="M370 200C370 293.888 293.888 370 200 370C106.112 370 30 293.888 30 200C30 106.112 106.112 30 200 30C293.888 30 370 106.112 370 200Z" fill="#1B9BCA"/>
<path d="M370 200C370 293.888 293.888 370 200 370C106.112 370 30 293.888 30 200C30 106.112 106.112 30 200 30C293.888 30 370 106.112 370 200Z" fill="url(#paint0_angular_1_12)"/>
<path d="M369.883 206.375C369.961 204.26 370 202.134 370 200C370 106.112 293.888 30 200 30C185.527 30 171.476 31.8086 158.062 35.2122C158.265 35.4234 158.467 35.6371 158.666 35.8531C193.965 74.0732 240.01 102.22 292.003 115.497C303.73 118.491 313.657 126.4 319.193 137.162C332.412 162.861 349.575 186.198 369.883 206.375Z" fill="url(#paint1_linear_1_12)"/>
<defs>
<radialGradient id="paint0_angular_1_12" cx="0" cy="0" r="1" gradientUnits="userSpaceOnUse" gradientTransform="translate(170.753 65.1882) rotate(63.236) scale(353.157 139.929)">
<stop stop-color="#008EC1"/>
<stop offset="1" stop-color="#BFE8FF"/>
</radialGradient>
<linearGradient id="paint1_linear_1_12" x1="-11.5" y1="-221.5" x2="492" y2="247.5" gradientUnits="userSpaceOnUse">
<stop stop-color="#209ECE"/>
<stop offset="1" stop-color="#77DAF6"/>
</linearGradient>
</defs>
</svg>
