<svg width="400" height="400" viewBox="0 0 400 400" fill="none" xmlns="http://www.w3.org/2000/svg">
<path d="M129.532 32.468C166.241 -4.24129 225.759 -4.24124 262.468 32.468L367.328 137.329C404.038 174.038 404.038 233.555 367.329 270.265L270.265 367.329C233.555 404.038 174.038 404.038 137.329 367.329L32.468 262.468C-4.24126 225.759 -4.24131 166.241 32.468 129.532L129.532 32.468Z" fill="#0163D5"/>
<path d="M129.532 32.468C166.241 -4.24129 225.759 -4.24124 262.468 32.468L367.328 137.329C404.038 174.038 404.038 233.555 367.329 270.265L270.265 367.329C233.555 404.038 174.038 404.038 137.329 367.329L32.468 262.468C-4.24126 225.759 -4.24131 166.241 32.468 129.532L129.532 32.468Z" fill="url(#paint0_radial_1_11)"/>
<path opacity="0.6" d="M391.53 178.936C400.134 210.43 392.067 245.526 367.329 270.265L270.265 367.329C233.555 404.038 174.038 404.038 137.329 367.329L32.468 262.468C-4.24126 225.759 -4.24131 166.241 32.468 129.532L41.3891 120.611C83.8058 135.613 121.427 160.765 151.334 193.147C164.742 207.664 186.782 211.527 204.337 202.451C241.976 182.991 284.705 172 330 172C351.156 172 371.751 174.398 391.53 178.936Z" fill="url(#paint1_linear_1_11)"/>
<defs>
<radialGradient id="paint0_radial_1_11" cx="0" cy="0" r="1" gradientUnits="userSpaceOnUse" gradientTransform="translate(133.997 174.247) rotate(44.0279) scale(287.574 62.665)">
<stop stop-color="#007EEE"/>
<stop offset="1" stop-color="#0063D4"/>
</radialGradient>
<linearGradient id="paint1_linear_1_11" x1="-41.5" y1="374.5" x2="462" y2="843.5" gradientUnits="userSpaceOnUse">
<stop stop-color="#209ECE"/>
<stop offset="1" stop-color="#77DAF6"/>
</linearGradient>
</defs>
</svg>
